<svg width="29" height="27" viewBox="0 0 29 27" fill="none" xmlns="http://www.w3.org/2000/svg">
  <path
    d="M28.4508 6.89091C28.4508 6.06066 28.377 5.23378 28.168 4.42547C27.7927 2.95313 26.9077 1.82841 25.5833 1.00238C24.902 0.5805 24.1523 0.321469 23.3553 0.184781C22.7433 0.0832085 22.1239 0.0273496 21.5027 0.0177188C21.4564 0.0135 21.4057 0.00421875 21.3541 0H7.09581C6.91525 0.0135 6.7347 0.0219375 6.55415 0.030375C5.66917 0.0784688 4.78954 0.166219 3.95526 0.482625C2.3712 1.07578 1.22651 2.11275 0.559446 3.60703C0.328197 4.11244 0.211682 4.64822 0.128966 5.19328C0.0595913 5.63288 0.0222355 6.07669 0.00889422 6.5205C0.00889422 6.55594 0 6.59053 0 6.62597V20.3766L0.0275721 20.8516C0.0880528 21.7704 0.212572 22.68 0.620816 23.5238C1.39017 25.1193 2.6825 26.1689 4.45689 26.6743C4.9523 26.8194 5.47172 26.8853 5.99026 26.9291C6.64843 26.9907 7.30571 26.9992 7.96388 26.9992H21.0455C21.6663 26.9992 22.2871 26.9595 22.9079 26.8853C23.8854 26.7663 24.8024 26.4938 25.6322 25.9757C26.6145 25.372 27.389 24.5088 27.8602 23.4925C28.0826 23.0175 28.208 22.5129 28.3005 22.0025C28.4348 21.2423 28.4624 20.4728 28.4624 19.7041C28.4579 15.4322 28.4624 11.1611 28.4579 6.88922L28.4508 6.89091ZM20.8347 11.3771V17.8023C20.8347 18.2723 20.7653 18.7338 20.543 19.1599C20.2005 19.8231 19.6447 20.2407 18.8984 20.4432C18.485 20.5556 18.0589 20.6205 17.6292 20.6364C17.0889 20.6667 16.5556 20.5075 16.131 20.189C15.7064 19.8705 15.4201 19.4151 15.3265 18.9093C15.2408 18.4542 15.3149 17.9851 15.5374 17.5738C15.76 17.1626 16.1186 16.832 16.5584 16.6328C16.9382 16.4573 17.3508 16.3519 17.7626 16.2726C18.2118 16.1806 18.661 16.0971 19.1057 16C19.4348 15.93 19.6473 15.741 19.7123 15.4195C19.7309 15.3495 19.7354 15.2744 19.7354 15.2044V9.07875C19.7338 9.00885 19.723 8.93941 19.7034 8.87203C19.6571 8.70075 19.5273 8.5995 19.3423 8.60794C19.1519 8.61638 18.9669 8.6476 18.7819 8.68303C17.8783 8.8501 16.9755 9.02138 16.0763 9.19688L11.6897 10.0364C11.671 10.0406 11.6479 10.0499 11.6292 10.0499C11.3001 10.1377 11.1845 10.2786 11.1702 10.6034C11.1658 10.6515 11.1702 10.7004 11.1702 10.7485C11.1658 13.6755 11.1702 16.6025 11.1658 19.5286C11.1658 20.0036 11.1098 20.4694 10.9114 20.9081C10.5823 21.6287 9.99888 22.0818 9.21174 22.2969C8.79561 22.4118 8.36592 22.4768 7.93275 22.4902C6.79785 22.5298 5.8524 21.8135 5.6585 20.7546C5.49129 19.8408 5.93155 18.8561 7.02465 18.4165C7.45069 18.2495 7.89095 18.1575 8.34011 18.0698L9.35939 17.8723C9.81299 17.7803 10.0496 17.5078 10.0727 17.0682V16.9012V6.90778C10.0727 6.76688 10.0914 6.62681 10.1234 6.49013C10.207 6.1695 10.448 5.98472 10.7718 5.90963C11.0733 5.83453 11.3837 5.78222 11.6888 5.72063C12.5595 5.55356 13.4258 5.3865 14.2966 5.22366L16.988 4.70475C17.7849 4.55541 18.5765 4.40184 19.3734 4.2525C19.6331 4.20441 19.8973 4.15125 20.1605 4.13353C20.5261 4.10316 20.7813 4.32253 20.8187 4.67438C20.8276 4.75791 20.8329 4.84144 20.8329 4.92497V11.3721L20.8347 11.3771Z"
    fill="white"/>
</svg>
