<svg width="30" height="19" viewBox="0 0 30 19" fill="none" xmlns="http://www.w3.org/2000/svg">
  <path
    d="M23.5125 0V3.62348H30V0H23.5125ZM7.8375 5.04656V8.66645H14.3237V5.04656H7.83625H7.8375ZM23.5125 5.04656V8.66645H30V5.04656H23.5125ZM7.8375 10.0859V13.7058H14.3237V10.0859H7.83625H7.8375ZM15.6763 10.0859V13.7058H22.1638V10.0859H15.6763ZM23.5138 10.0859V13.7058H30V10.0859H23.5125H23.5138ZM0 15.1277V18.75H6.4875V15.1265H0V15.1277ZM7.8375 15.1277V18.75H14.3237V15.1265H7.83625L7.8375 15.1277ZM15.6763 15.1277V18.75H22.1638V15.1265H15.6763V15.1277ZM23.5138 15.1277V18.75H30V15.1265H23.5125L23.5138 15.1277Z"
    fill="white"/>
</svg>
