<svg width="29" height="29" viewBox="0 0 29 29" fill="none" xmlns="http://www.w3.org/2000/svg">
  <path
    d="M11.4807 8.54187C13.7329 8.5968 15.6921 8.78448 17.3584 9.10492C19.0247 9.42535 20.5811 9.95178 22.0276 10.6842C22.3022 10.8124 22.5403 10.9543 22.7417 11.1099C22.9431 11.2656 23.0804 11.4349 23.1537 11.618C23.2269 11.8011 23.2452 12.0438 23.2086 12.3459C23.172 12.648 23.0804 12.8448 22.934 12.9364C22.8424 13.0096 22.728 13.0692 22.5906 13.1149C22.4533 13.1607 22.316 13.1973 22.1786 13.2248C22.0413 13.2523 21.904 13.2568 21.7667 13.2385C21.6293 13.2202 21.5057 13.1927 21.3959 13.1561C18.5394 11.673 15.2435 11.0046 11.5082 11.1511C10.5377 11.1877 9.15527 11.38 7.36084 11.7279C6.33545 11.9293 5.71289 11.6455 5.49316 10.8765C5.40161 10.5835 5.40619 10.318 5.5069 10.08C5.6076 9.84192 5.76324 9.66339 5.97382 9.54437C6.18439 9.42535 6.43616 9.33838 6.72913 9.28345C7.05872 9.21021 8.64258 8.96301 11.4807 8.54187ZM12.1124 12.7167C13.7054 12.8265 15.2069 13.06 16.6168 13.4171C18.0267 13.7741 19.3542 14.3097 20.5994 15.0238C20.6726 15.0604 20.755 15.1154 20.8466 15.1886C20.9381 15.2618 21.0205 15.3442 21.0938 15.4358C21.167 15.5273 21.2357 15.6235 21.2997 15.7242C21.3638 15.8249 21.4142 15.9256 21.4508 16.0263C21.4874 16.127 21.5057 16.2231 21.5057 16.3147C21.5424 16.7175 21.3684 16.9785 20.9839 17.0975C20.5994 17.2165 20.1599 17.1478 19.6655 16.8915C16.4429 15.1886 12.8723 14.6667 8.95386 15.3259C8.89893 15.3259 8.71582 15.3763 8.40454 15.477C8.09326 15.5777 7.86438 15.6097 7.7179 15.5731C7.66296 15.5548 7.60345 15.5365 7.53937 15.5182C7.47528 15.4999 7.41577 15.477 7.36084 15.4495L7.19604 15.3671L7.03125 15.271L6.85272 15.1611L6.68793 15.065L6.52313 14.9689L6.3446 14.8865C6.39954 14.7949 6.48193 14.6347 6.5918 14.4058C6.70166 14.1769 6.80695 13.9938 6.90765 13.8565C7.00836 13.7192 7.11365 13.6414 7.22351 13.623C7.69958 13.4949 8.19397 13.385 8.70667 13.2935C9.21936 13.2019 9.8465 13.0966 10.5881 12.9776C11.3297 12.8586 11.8378 12.7716 12.1124 12.7167ZM11.5356 16.9189C14.6484 16.9739 17.1936 17.5598 19.1711 18.6768C19.3542 18.7683 19.4962 18.8553 19.5969 18.9377C19.6976 19.0201 19.8029 19.1208 19.9127 19.2398C20.0226 19.3588 20.0684 19.4916 20.05 19.6381C20.0317 19.7845 19.9585 19.931 19.8303 20.0775C19.7388 20.224 19.519 20.3064 19.1711 20.3247C18.8232 20.343 18.5577 20.2972 18.3746 20.1874C15.976 18.9056 13.0737 18.4753 9.66797 18.8965C9.53979 18.9148 9.37958 18.9468 9.18732 18.9926C8.99506 19.0384 8.81653 19.0796 8.65173 19.1162C8.48694 19.1528 8.3313 19.162 8.18481 19.1437C8.03833 19.1254 7.89642 19.0887 7.75909 19.0338C7.62177 18.9789 7.45697 18.9011 7.26471 18.8004C7.07245 18.6996 6.9397 18.631 6.86646 18.5944C6.90308 18.5211 6.95801 18.4387 7.03125 18.3472C7.10449 18.2556 7.164 18.1686 7.20978 18.0862C7.25555 18.0038 7.31049 17.9214 7.37457 17.8391C7.43866 17.7567 7.50732 17.688 7.58057 17.6331C7.65381 17.5781 7.7179 17.5415 7.77283 17.5232C8.21228 17.4316 8.66547 17.3447 9.13239 17.2623C9.5993 17.1799 10.0983 17.1066 10.6293 17.0425C11.1603 16.9785 11.4624 16.9373 11.5356 16.9189ZM28.125 14.0625C28.125 17.9443 26.7517 21.2585 24.0051 24.0051C21.2585 26.7517 17.9443 28.125 14.0625 28.125C10.1807 28.125 6.86646 26.7517 4.11987 24.0051C1.37329 21.2585 0 17.9443 0 14.0625C0 10.1807 1.37329 6.86646 4.11987 4.11987C4.57764 3.66211 5.04913 3.24097 5.53436 2.85645C6.01959 2.47192 6.52313 2.1286 7.04498 1.82648C7.56683 1.52435 8.10699 1.25885 8.66547 1.02997C9.22394 0.801086 9.79156 0.608826 10.3683 0.453186C10.9451 0.297546 11.5448 0.183105 12.1674 0.109863C12.7899 0.0366211 13.4216 0 14.0625 0C17.9443 0 21.2585 1.37329 24.0051 4.11987C26.7517 6.86646 28.125 10.1807 28.125 14.0625ZM26.3672 14.0625C26.3672 10.6567 25.1678 7.75452 22.7692 5.35583C20.3705 2.95715 17.4683 1.75781 14.0625 1.75781C10.6567 1.75781 7.75452 2.95715 5.35583 5.35583C2.95715 7.75452 1.75781 10.6567 1.75781 14.0625C1.75781 17.4683 2.95715 20.3796 5.35583 22.7966C7.75452 25.2136 10.6567 26.4221 14.0625 26.4221C17.4683 26.4221 20.3705 25.2136 22.7692 22.7966C25.1678 20.3796 26.3672 17.4683 26.3672 14.0625Z"
    fill="white"/>
</svg>
